<svg xmlns="http://www.w3.org/2000/svg" version="1.1" xmlns:xlink="http://www.w3.org/1999/xlink" xmlns:svgjs="http://svgjs.com/svgjs" width="1440" height="560" preserveAspectRatio="none" viewBox="0 0 1440 560"><g mask="url(&quot;#SvgjsMask1049&quot;)" fill="none"><rect width="1440" height="560" x="0" y="0" fill="#0e2a47"></rect><path d="M0,432.465C83.351,432.306,167.418,414.617,236.251,367.613C304.076,321.297,347.269,248.854,379.502,173.313C411.122,99.208,441.472,17.099,418.801,-60.214C396.884,-134.955,317.618,-172.484,262.086,-227.099C211.634,-276.718,171.645,-336.308,107.56,-366.317C36.684,-399.506,-41.62,-416.685,-119.092,-405.592C-203.692,-393.478,-298.248,-370.961,-347.546,-301.15C-396.427,-231.928,-377.629,-137.136,-368.128,-52.929C-360.437,15.236,-318.606,70.691,-298.202,136.184C-273.884,214.239,-294.825,310.891,-236.829,368.513C-177.623,427.338,-83.461,432.624,0,432.465" fill="#091b2e"></path><path d="M1440 1094.905C1549.53 1105.484 1659.179 1100.665 1761.588 1060.4 1880.104 1013.803 2035.877 970.294 2069.4030000000002 847.4390000000001 2104.094 720.315 1939.355 621.275 1916.8519999999999 491.43899999999996 1895.409 367.71799999999996 1995.897 237.66000000000003 1943.907 123.363 1889.095 2.8590000000000373 1771.165-107.04399999999998 1639.3-118.75199999999995 1506.887-130.50900000000001 1422.604 28.916000000000054 1294.87 65.73399999999998 1166.094 102.85300000000001 990.662-6.678999999999974 901.956 93.78199999999998 813.538 193.918 943.729 353.69100000000003 923.954 485.804 903.992 619.1659999999999 732.278 734.963 787.575 857.952 842.761 980.693 1029.509 955.9680000000001 1156.002 1001.909 1251.566 1036.616 1338.8 1085.13 1440 1094.905" fill="#133960"></path></g><defs><mask id="SvgjsMask1049"><rect width="1440" height="560" fill="#ffffff"></rect></mask></defs></svg>